<svg width="24" height="24" viewBox="0 0 24 24" fill="none" xmlns="http://www.w3.org/2000/svg">
    <path fill-rule="evenodd" clip-rule="evenodd" d="M4 12a8 8 0 1 0 16 0 8 8 0 0 0-16 0zm8-10C6.477 2 2 6.477 2 12s4.477 10 10 10 10-4.477 10-10S17.523 2 12 2z" fill="#333"/>
    <path d="M11.344 17.636v-1.11c-1.596-.168-2.664-.966-2.844-2.424l1.524-.054c.216.876.954 1.326 1.986 1.326.924 0 1.686-.498 1.686-1.224 0-.696-.42-1.038-1.326-1.254l-1.458-.348c-1.302-.294-2.136-1.026-2.148-2.292C8.752 8.87 9.838 7.904 11.392 7.7V6.5h1.296v1.206c1.494.234 2.394 1.266 2.406 2.484l-1.482.048c-.138-.888-.576-1.392-1.566-1.392-.966 0-1.716.468-1.716 1.248 0 .564.318.84 1.356 1.128l1.416.372c1.53.396 2.148 1.326 2.148 2.544 0 1.284-1.02 2.202-2.616 2.388v1.11h-1.29z" fill="#333"/>
</svg>
