<svg width="169" height="197" viewBox="0 0 169 197" fill="none" xmlns="http://www.w3.org/2000/svg">
<g clip-path="url(#clip0_98_131)">
<mask id="mask0_98_131" style="mask-type:luminance" maskUnits="userSpaceOnUse" x="0" y="0" width="169" height="197">
<path d="M0 0.109375H168.559V196.596H0V0.109375Z" fill="white"/>
</mask>
<g mask="url(#mask0_98_131)">
<path d="M0 0.109375H168.559V196.596H0V0.109375Z" fill="white"/>
</g>
<path fill-rule="evenodd" clip-rule="evenodd" d="M84.0863 25.6421C84.9504 0.576021 113.119 7.35672 117.327 2.70703C120.832 19.4046 98.3512 33.4999 84.0863 25.6421Z" fill="#B7A89B"/>
<mask id="mask1_98_131" style="mask-type:luminance" maskUnits="userSpaceOnUse" x="19" y="35" width="98" height="111">
<path d="M19.7806 35.0615H116.491V145.445H19.7806V35.0615Z" fill="white"/>
</mask>
<g mask="url(#mask1_98_131)">
<path fill-rule="evenodd" clip-rule="evenodd" d="M77.9777 37.1698C72.8482 35.8141 67.2544 35.127 61.1756 35.127C47.7496 35.127 35.8771 39.584 25.5582 48.4933C23.5749 50.1229 23.5082 51.8779 25.3767 53.7605L32.462 61.2933C33.9489 62.7953 35.5692 62.8579 37.3066 61.4767C43.9622 56.3767 51.252 53.6468 59.1785 53.2568C60.3046 51.6713 61.5319 50.1021 62.8372 48.6025C67.1211 43.6928 72.1564 39.8927 77.9777 37.1698ZM23.5082 82.3736C22.52 82.3736 21.6375 82.7125 20.8998 83.4043C20.1529 84.0937 19.7806 84.9457 19.7806 85.9439V139.402C19.7806 140.405 20.1529 141.253 20.9021 141.942C21.6444 142.631 22.5154 142.973 23.5082 142.973H35.4405C36.6838 142.973 37.3066 142.348 37.3066 141.095V140.907C37.3066 140.656 37.4629 140.433 37.7754 140.247C38.0811 140.057 38.3638 140.027 38.6143 140.15C46.1937 143.662 53.7157 145.424 61.1779 145.424C70.6212 145.424 78.9821 143.948 86.2558 140.997C93.5296 138.049 99.2797 134.038 103.501 128.954C107.728 123.87 110.897 118.225 113.011 112.015C115.126 105.801 116.178 99.1222 116.178 91.9724C116.178 78.9542 112.903 67.5656 106.374 57.7811C99.0154 58.1479 92.9666 60.6782 88.2346 65.3534C94.0559 72.5055 96.9746 81.3708 96.9746 91.9724C96.9746 101.632 94.0237 109.879 88.1197 116.723C82.2156 123.557 73.232 126.979 61.1756 126.979C52.9734 126.979 45.6353 124.53 39.175 119.636C38.304 119.135 37.8674 118.195 37.8674 116.813V103.64C37.8674 101.256 39.0509 100.06 41.4112 100.06H48.3632C48.0438 97.4346 47.8852 94.7441 47.8852 91.9724C47.8852 88.6715 48.0805 85.4657 48.5011 82.3713H23.5082V82.3736Z" fill="#4F4A4A"/>
</g>
<mask id="mask2_98_131" style="mask-type:luminance" maskUnits="userSpaceOnUse" x="52" y="35" width="98" height="111">
<path d="M52.3621 35.0615H149.171V145.445H52.3621V35.0615Z" fill="white"/>
</mask>
<g mask="url(#mask2_98_131)">
<path fill-rule="evenodd" clip-rule="evenodd" d="M60.6448 122.141C58.735 118.947 57.1561 115.581 55.9426 112.013C53.8283 105.801 52.7734 99.1222 52.7734 91.9724C52.7734 76.157 57.5882 62.7303 67.2222 51.6922C76.8562 40.6471 90.3765 35.127 107.776 35.127C121.204 35.127 133.075 39.5816 143.391 48.4933C145.381 50.1229 145.441 51.8779 143.577 53.7605L136.492 61.2933C135.003 62.7953 133.383 62.8556 131.645 61.4767C124.436 55.9542 116.482 53.1941 107.776 53.1941C96.8436 53.1941 88.138 56.8688 81.6709 64.209C75.2107 71.5491 71.9794 80.802 71.9794 91.9724C71.9794 101.632 74.9303 109.879 80.8321 116.723C80.9677 116.878 81.1125 117.025 81.2504 117.175C75.151 120.762 67.76 122.361 60.6448 122.141ZM145.441 82.3736C146.439 82.3736 147.307 82.7125 148.052 83.4043C148.799 84.0961 149.171 84.9457 149.171 85.9439V139.402C149.171 140.405 148.799 141.253 148.052 141.942C147.307 142.631 146.439 142.973 145.441 142.973H133.511C132.27 142.973 131.645 142.348 131.645 141.095V140.907C131.645 140.656 131.489 140.433 131.179 140.247C130.871 140.057 130.593 140.027 130.335 140.15C122.758 143.662 115.236 145.424 107.776 145.424C101.619 145.424 95.9542 144.765 90.7212 143.507C97.1585 140.637 102.302 136.9 106.172 132.232C107.592 130.528 108.898 128.743 110.074 126.904C117.357 126.484 123.926 124.07 129.781 119.638C130.65 119.135 131.087 118.195 131.087 116.813V103.64C131.087 101.256 129.903 100.06 127.541 100.06H120.412C120.736 97.4346 120.878 94.7441 120.878 91.9724C120.878 88.6645 120.664 85.4657 120.248 82.3736H145.441Z" fill="#96887D"/>
</g>
<path d="M19.9508 176.286C19.7716 175.655 19.4452 175.163 18.9672 174.81C18.4892 174.452 17.887 174.271 17.1654 174.271C16.1473 174.271 15.3223 174.652 14.6926 175.413C14.0674 176.17 13.7549 177.247 13.7549 178.645C13.7549 180.051 14.0628 181.138 14.6834 181.904C15.3016 182.665 16.1381 183.046 17.193 183.046C18.1307 183.046 18.8661 182.802 19.3993 182.312C19.9324 181.818 20.2082 181.156 20.2266 180.325H17.3677V178.18H22.9385V179.88C22.9385 181.057 22.6903 182.071 22.1939 182.925C21.702 183.775 21.0264 184.427 20.1623 184.885C19.2981 185.337 18.3053 185.562 17.1838 185.562C15.9336 185.562 14.835 185.284 13.8928 184.727C12.9482 184.17 12.2128 183.378 11.6865 182.35C11.1579 181.317 10.8959 180.091 10.8959 178.673C10.8959 177.219 11.1717 175.977 11.7233 174.949C12.2749 173.916 13.0195 173.127 13.9571 172.581C14.8994 172.031 15.9543 171.755 17.1194 171.755C18.1238 171.755 19.0338 171.948 19.8497 172.331C20.6633 172.716 21.332 173.248 21.8537 173.928C22.3731 174.61 22.6926 175.395 22.8098 176.286H19.9508Z" fill="#96887D"/>
<path d="M31.5228 171.94V185.376H28.7098V171.94H31.5228Z" fill="#96887D"/>
<path d="M37.5013 185.376V171.94H46.308V174.28H40.3143V177.484H45.7197V179.824H40.3143V185.376H37.5013Z" fill="#96887D"/>
<path d="M51.3548 174.28V171.94H62.2758V174.28H58.2034V185.376H55.4272V174.28H51.3548Z" fill="#96887D"/>
<path d="M84.4636 176.286C84.2843 175.655 83.958 175.163 83.48 174.81C83.0019 174.452 82.3998 174.271 81.6782 174.271C80.6601 174.271 79.835 174.652 79.2053 175.413C78.5802 176.17 78.2676 177.247 78.2676 178.645C78.2676 180.051 78.5756 181.138 79.1961 181.904C79.8143 182.665 80.6509 183.046 81.7057 183.046C82.6434 183.046 83.3788 182.802 83.912 182.312C84.4452 181.818 84.721 181.156 84.7394 180.325H81.8804V178.18H87.4512V179.88C87.4512 181.057 87.203 182.071 86.7066 182.925C86.2148 183.775 85.5391 184.427 84.675 184.885C83.8109 185.337 82.8181 185.562 81.6966 185.562C80.4463 185.562 79.3478 185.284 78.4055 184.727C77.461 184.17 76.7256 183.378 76.1993 182.35C75.6707 181.317 75.4087 180.091 75.4087 178.673C75.4087 177.219 75.6845 175.977 76.236 174.949C76.7876 173.916 77.5322 173.127 78.4699 172.581C79.4121 172.031 80.467 171.755 81.6322 171.755C82.6365 171.755 83.5466 171.948 84.3625 172.331C85.176 172.716 85.8448 173.248 86.3665 173.928C86.8859 174.61 87.2053 175.395 87.3225 176.286H84.4636Z" fill="#96887D"/>
<path d="M93.2225 185.376V171.94H102.185V174.28H96.0355V177.484H101.726V179.824H96.0355V183.037H102.213V185.376H93.2225Z" fill="#96887D"/>
<path d="M108.088 185.376V171.94H117.051V174.28H110.901V177.484H116.592V179.824H110.901V183.037H117.079V185.376H108.088Z" fill="#96887D"/>
<path d="M134.077 171.94V185.376H131.65L125.859 176.917H125.767V185.376H122.954V171.94H125.418L131.163 180.39H131.283V171.94H134.077Z" fill="#96887D"/>
<path d="M142.874 171.94V185.376H140.061V171.94H142.874Z" fill="#96887D"/>
<path d="M148.853 185.376V171.94H157.816V174.28H151.666V177.484H157.356V179.824H151.666V183.037H157.843V185.376H148.853Z" fill="#96887D"/>
</g>
<defs>
<clipPath id="clip0_98_131">
<rect width="169" height="197" fill="white"/>
</clipPath>
</defs>
</svg>
